<?xml version="1.0" encoding="UTF-8"?>
<!-- Created with Inkscape (http://www.inkscape.org/) -->
<svg width="200" height="200" version="1.1" viewBox="0 0 200 200" xmlns="http://www.w3.org/2000/svg">
 <path d="m77.399 120.93c-5.2697-0.75852-9.9533-1.9012-14.051-3.4276-7.9851-3.0343-13.814-7.8254-17.488-14.373-3.6732-6.5479-5.5098-15.012-5.5098-25.393 0-10.54 1.8366-19.005 5.5098-25.393 3.6732-6.5479 9.5024-11.339 17.488-14.373 8.1449-3.1941 18.606-4.7911 31.382-4.7911 9.5467 0 17.736 0.8063 24.566 2.4189l20.231-15.594 20.123 19.404-13.595 17.22c2.3556 5.8093 3.5334 12.846 3.5334 21.109 0 10.54-1.8366 19.085-5.5098 25.633-3.673 6.3881-9.5822 11.099-17.727 14.134-5.5456 2.1074-12.324 3.4829-20.334 4.1267l-0.74668 8.8093c9.1032 1.2777 16.609 2.715 22.518 4.312 5.9091 1.4373 10.54 3.3538 13.894 5.7494 3.3538 2.3955 5.7493 5.4298 7.1867 9.1031 1.4373 3.5135 2.156 7.8254 2.156 12.936 0 6.833-1.2926 12.654-3.8776 17.464h-102.85l3.481-19.62c7.3464 2.0761 14.453 3.5933 21.32 4.5516 6.8674 1.1179 13.655 1.6769 20.362 1.6769 4.4718 0 8.624-0.15955 12.457-0.4793 3.8329-0.31974 7.586-0.63878 11.259-0.95821v-11.02c-15.332-1.1179-26.271-2.5552-32.819-4.312-6.5478-1.7568-9.8218-4.0724-9.8218-6.9471zm21.643-21.155h-18.446v-34.736c0-3.6732 0.71867-6.1485 2.156-7.4262 1.4373-1.4373 4.0725-2.156 7.9054-2.156h18.685v34.975c0 3.3538-0.79841 5.7493-2.3956 7.1867-1.4373 1.4373-4.0724 2.156-7.9053 2.156z" clip-rule="evenodd" fill="#fff" fill-rule="evenodd" stroke-width="1.6752"/>
</svg>
